<?xml version="1.0" standalone="no"?>
<!DOCTYPE svg PUBLIC "-//W3C//DTD SVG 20010904//EN"
 "http://www.w3.org/TR/2001/REC-SVG-20010904/DTD/svg10.dtd">
<svg version="1.0" xmlns="http://www.w3.org/2000/svg"
 width="1120.000000pt" height="1120.000000pt" viewBox="0 0 1120.000000 1120.000000"
 preserveAspectRatio="xMidYMid meet">
<metadata>
Created by potrace 1.14, written by Peter Selinger 2001-2017
</metadata>
<g transform="translate(0.000000,1120.000000) scale(0.100000,-0.100000)"
fill="#000000" stroke="none">
<path d="M0 7395 l0 -2045 83 0 c237 -2 330 0 335 5 3 2 5 830 5 1839 l0 1834
3512 0 3513 0 0 -679 0 -679 -343 0 c-329 0 -375 -2 -375 -20 0 -4 -35 -81
-78 -171 -44 -90 -105 -220 -138 -289 -32 -69 -63 -128 -69 -132 -5 -4 -7 -8
-3 -8 3 0 -10 -33 -30 -72 -20 -40 -36 -75 -37 -78 -1 -3 -43 -90 -94 -195
-51 -104 -97 -199 -102 -210 -5 -11 -13 -27 -18 -35 -22 -33 -165 -336 -163
-342 1 -5 -3 -8 -8 -8 -6 0 -10 -4 -10 -10 0 -5 -43 -98 -95 -205 -53 -107
-95 -198 -94 -201 0 -4 -3 -10 -8 -13 -4 -3 -35 -62 -68 -131 -33 -69 -63
-126 -68 -128 -4 -2 -7 -8 -7 -14 0 -17 -409 -826 -432 -855 -6 -7 -7 -13 -4
-13 4 0 -2 -13 -13 -29 -12 -16 -21 -33 -21 -38 0 -5 -5 -14 -12 -21 -8 -8
-14 -6 -23 11 -28 54 -131 248 -160 302 -18 33 -53 98 -78 145 -24 47 -60 114
-80 150 -19 36 -56 106 -82 155 -79 148 -116 217 -150 280 -17 33 -58 110 -90
170 -32 61 -61 114 -66 120 -5 5 -9 17 -9 26 0 10 -4 19 -9 21 -7 3 -57 94
-156 285 -16 32 -73 139 -126 238 -160 297 -181 337 -213 400 -17 33 -34 62
-38 63 -5 2 -8 12 -8 23 0 10 -3 19 -8 19 -4 0 -20 27 -35 60 -16 33 -32 62
-37 65 -5 3 -11 19 -15 35 -4 17 -10 30 -14 30 -4 0 -18 24 -32 53 -13 28 -26
54 -29 57 -5 5 -62 113 -124 235 -17 33 -34 62 -37 65 -3 3 -15 26 -27 52 -12
25 -26 49 -32 53 -5 3 -10 13 -10 21 0 8 -10 30 -22 49 l-23 35 -258 -1 -258
-2 16 -23 c8 -13 13 -24 9 -24 -4 0 -2 -6 4 -12 11 -15 37 -60 92 -163 21 -38
51 -95 67 -125 17 -30 71 -129 120 -220 50 -91 110 -201 133 -245 24 -44 54
-98 66 -120 13 -22 35 -65 50 -95 15 -30 30 -57 33 -60 3 -3 20 -32 37 -65 40
-78 112 -210 197 -365 17 -30 37 -68 45 -85 9 -16 24 -42 34 -57 11 -16 16
-28 13 -28 -3 0 2 -12 13 -27 10 -16 31 -53 47 -83 16 -30 41 -77 56 -105 16
-27 39 -70 52 -95 71 -131 99 -183 146 -268 28 -51 51 -97 51 -101 0 -5 7 -14
15 -21 9 -7 13 -15 11 -18 -3 -3 3 -17 13 -31 16 -24 64 -110 146 -266 18 -33
41 -76 52 -95 24 -42 112 -207 145 -270 13 -25 26 -46 31 -48 4 -2 7 -7 7 -11
0 -7 25 -56 135 -256 63 -116 119 -220 144 -270 14 -27 28 -52 31 -55 3 -3 14
-23 26 -45 37 -72 106 -198 156 -288 l50 -88 60 118 c33 65 90 177 128 248 37
72 122 236 188 365 66 129 138 269 160 310 51 98 261 507 303 590 18 36 36 67
41 68 4 2 6 7 3 12 -3 5 2 16 11 24 8 9 12 16 8 16 -3 0 -2 6 4 13 5 6 72 134
148 282 76 149 163 318 194 377 78 152 172 335 276 538 49 96 94 178 99 182 6
4 6 8 1 8 -5 0 -4 6 1 13 9 11 47 82 238 454 l58 112 376 0 c207 0 386 0 399
0 l22 1 0 1085 0 1085 -3935 0 -3935 0 0 -2045z"/>
<path d="M10787 9433 c-2 -5 -4 -1733 -4 -3840 l0 -3833 209 0 208 0 0 3840 0
3840 -204 0 c-113 0 -207 -3 -209 -7z"/>
<path d="M780 7665 c0 -3 32 -67 71 -142 40 -76 105 -203 147 -283 41 -80 96
-185 122 -235 26 -49 84 -162 130 -250 135 -262 192 -369 203 -382 5 -7 6 -13
2 -13 -4 0 -3 -6 3 -12 10 -12 34 -59 206 -391 39 -75 91 -177 116 -225 25
-48 70 -134 100 -192 29 -58 65 -125 79 -150 14 -24 26 -51 27 -58 2 -8 9 -21
16 -30 8 -10 51 -89 96 -177 44 -88 105 -207 136 -265 30 -58 81 -157 114
-220 32 -63 85 -164 117 -225 31 -60 99 -191 151 -291 l94 -181 -1333 -1
c-732 0 -1342 -1 -1354 -1 l-23 -1 0 -1090 0 -1090 3935 0 3935 0 0 2050 c0
1128 -3 2050 -7 2050 -11 1 -318 1 -373 1 l-45 -1 1 -1844 1 -1844 -3511 2
-3511 1 -1 682 -1 682 116 0 c64 0 121 0 126 1 6 2 15 2 20 1 13 -3 209 -3
221 0 5 1 14 1 19 0 13 -3 209 -3 221 0 5 1 14 1 19 0 13 -3 209 -3 221 0 5 1
14 1 19 0 13 -3 209 -3 221 0 5 1 14 1 19 0 13 -3 209 -3 221 0 5 1 14 1 19 0
13 -3 209 -3 221 0 5 1 14 1 19 0 13 -3 209 -3 221 0 5 1 14 1 19 0 13 -2 370
-2 381 0 5 1 12 1 17 0 26 -6 150 -2 158 6 5 5 59 107 120 228 l111 219 -73
151 c-41 82 -76 152 -79 155 -10 10 -130 256 -130 267 0 6 -3 13 -7 15 -10 4
-353 690 -353 705 0 6 -3 13 -7 15 -5 2 -235 458 -513 1013 -277 556 -511
1018 -520 1029 -8 10 -14 20 -12 22 3 5 -119 253 -138 281 -15 20 -23 21 -278
22 -144 0 -262 -1 -262 -4z"/>
</g>
</svg>
